<svg xmlns="http://www.w3.org/2000/svg" width="920" height="420" viewBox="0 0 920 420">
  <rect width="920" height="420" rx="18" fill="#ffffff"/>
  <rect x="1" y="1" width="918" height="418" rx="18" fill="none" stroke="#e5e7eb"/>
  <text x="32" y="42" font-family="Arial, sans-serif" font-size="22" font-weight="700" fill="#111827">Error rate</text>
  <rect x="760" y="22" width="56" height="32" rx="16" fill="#ffedd5"/>
  <text x="778" y="43" font-family="Arial, sans-serif" font-size="13" font-weight="700" fill="#c2410c">Chart</text>
  <rect x="822" y="22" width="54" height="32" rx="16" fill="#f3f4f6"/>
  <text x="839" y="43" font-family="Arial, sans-serif" font-size="13" font-weight="700" fill="#6b7280">List</text>
  <line x1="80" y1="330" x2="860" y2="330" stroke="#d1d5db"/>
  <line x1="80" y1="90" x2="80" y2="330" stroke="#d1d5db"/>
  <text x="32" y="212" font-family="Arial, sans-serif" font-size="13" fill="#6b7280" transform="rotate(-90 32 212)">Error rate (%)</text>
  <text x="442" y="382" font-family="Arial, sans-serif" font-size="13" fill="#6b7280">Time</text>
  <g font-family="Arial, sans-serif" font-size="12" fill="#6b7280">
    <text x="50" y="334">0%</text>
    <text x="42" y="274">2%</text>
    <text x="42" y="214">4%</text>
    <text x="42" y="154">6%</text>
    <text x="42" y="94">8%</text>
    <text x="70" y="354">10:00</text>
    <text x="246" y="354">11:00</text>
    <text x="422" y="354">12:00</text>
    <text x="598" y="354">13:00</text>
    <text x="772" y="354">14:00</text>
  </g>
  <g stroke="#eef2f7">
    <line x1="80" y1="270" x2="860" y2="270"/>
    <line x1="80" y1="210" x2="860" y2="210"/>
    <line x1="80" y1="150" x2="860" y2="150"/>
    <line x1="80" y1="90" x2="860" y2="90"/>
  </g>
  <polyline fill="none" stroke="#fb923c" stroke-width="4" stroke-linecap="round" stroke-linejoin="round"
    points="80,322 180,318 280,312 380,300 480,246 580,118 680,180 780,292 860,310"/>
  <circle cx="580" cy="118" r="8" fill="#fb923c"/>
  <rect x="608" y="82" width="170" height="72" rx="10" fill="#111827"/>
  <text x="624" y="106" font-family="Arial, sans-serif" font-size="13" fill="#ffffff">12:45</text>
  <text x="624" y="127" font-family="Arial, sans-serif" font-size="13" fill="#ffffff">Error rate: 7.1%</text>
  <text x="624" y="148" font-family="Arial, sans-serif" font-size="13" fill="#ffffff">Errors: 33</text>
  <text x="32" y="400" font-family="Arial, sans-serif" font-size="13" fill="#6b7280">Orange line = error percentage for each time bucket.</text>
</svg>
