<svg xmlns="http://www.w3.org/2000/svg" width="1200" height="470" viewBox="0 0 1200 470">
  <rect width="1200" height="470" fill="#fff"/>
  <rect x="24" y="18" width="36" height="36" rx="9" fill="#10b981"/><text x="36" y="43" font-family="Arial" font-size="20" fill="#fff">▥</text>
  <text x="74" y="34" font-family="Arial" font-size="20" font-weight="700" fill="#020617">Monitoring Dashboard</text>
  <text x="74" y="55" font-family="Arial" font-size="14" fill="#94a3b8">Cross-tenant fleet health · leaderboards · pod-level attribution</text>
  <rect x="800" y="22" width="258" height="32" rx="10" fill="#fff" stroke="#e5e7eb"/>
  <text x="818" y="42" font-family="Arial" font-size="13" fill="#10b981">◷</text><text x="842" y="42" font-family="Arial" font-size="13" font-weight="700" fill="#475569">Last updated</text><text x="932" y="42" font-family="Arial" font-size="13" font-weight="700" fill="#020617">29m ago</text>
  <rect x="1070" y="22" width="112" height="32" rx="10" fill="#fff" stroke="#e5e7eb"/>
  <text x="1090" y="42" font-family="Arial" font-size="13" font-weight="700" fill="#0f172a">Last 24 hours</text>
  <line x1="0" y1="76" x2="1200" y2="76" stroke="#e5e7eb"/>
  <g font-family="Arial" font-size="14" font-weight="700">
    <text x="36" y="110" fill="#475569">● All</text><text x="118" y="110" fill="#10b981">● Production</text><text x="218" y="110" fill="#475569">● UAT</text><text x="292" y="110" fill="#475569">● QA</text><text x="370" y="110" fill="#475569">● Dev</text><text x="448" y="110" fill="#475569">● Demo</text>
  </g>
  <line x1="118" y1="126" x2="210" y2="126" stroke="#10b981" stroke-width="2"/>
  <g font-family="Arial">
    <rect x="22" y="145" width="224" height="84" rx="12" fill="#fff" stroke="#e5e7eb"/><text x="70" y="176" font-size="12" font-weight="700" fill="#64748b">TENANTS</text><text x="38" y="214" font-size="28" font-weight="700">22</text>
    <rect x="260" y="145" width="224" height="84" rx="12" fill="#fff" stroke="#e5e7eb"/><text x="308" y="176" font-size="12" font-weight="700" fill="#64748b">APPS</text><text x="276" y="214" font-size="28" font-weight="700">32</text>
    <rect x="498" y="145" width="224" height="84" rx="12" fill="#fff" stroke="#e5e7eb"/><text x="546" y="176" font-size="12" font-weight="700" fill="#64748b">TOTAL REQUESTS</text><text x="514" y="214" font-size="28" font-weight="700">5,987</text>
    <rect x="736" y="145" width="224" height="84" rx="12" fill="#fff" stroke="#e5e7eb"/><text x="784" y="176" font-size="12" font-weight="700" fill="#64748b">TOTAL ERRORS</text><text x="752" y="214" font-size="28" font-weight="700">363</text>
    <rect x="974" y="145" width="204" height="84" rx="12" fill="#fff" stroke="#e5e7eb"/><text x="1022" y="176" font-size="12" font-weight="700" fill="#64748b">ERROR RATE</text><text x="990" y="214" font-size="28" font-weight="700">6.06%</text>
  </g>
  <rect x="22" y="245" width="1156" height="190" rx="14" fill="#fff" stroke="#e5e7eb"/>
  <text x="44" y="276" font-family="Arial" font-size="18" font-weight="700" fill="#020617">Environment breakdown</text>
  <g font-family="Arial">
    <rect x="44" y="300" width="210" height="105" rx="10" fill="#fef2f2" stroke="#fecaca"/><text x="60" y="326" font-size="15" font-weight="700">● Production</text><text x="60" y="360" font-size="26" font-weight="700">5,987</text><text x="60" y="380" font-size="12" fill="#64748b">requests</text><text x="60" y="404" font-size="13" fill="#dc2626" font-weight="700">363 errors</text><text x="132" y="404" font-size="13" font-weight="700">6.06% rate</text>
    <rect x="270" y="300" width="210" height="105" rx="10" fill="#ecfdf5" stroke="#a7f3d0"/><text x="286" y="326" font-size="15" font-weight="700">● Dev</text><text x="286" y="360" font-size="26" font-weight="700">532</text><text x="286" y="404" font-size="13" fill="#dc2626" font-weight="700">18 errors</text><text x="354" y="404" font-size="13" font-weight="700">3.38% rate</text>
    <rect x="496" y="300" width="210" height="105" rx="10" fill="#fffbeb" stroke="#fde68a"/><text x="512" y="326" font-size="15" font-weight="700">● UAT</text><text x="512" y="360" font-size="26" font-weight="700">269</text><text x="512" y="404" font-size="13" fill="#dc2626" font-weight="700">21 errors</text><text x="582" y="404" font-size="13" font-weight="700">7.81% rate</text>
    <rect x="722" y="300" width="210" height="105" rx="10" fill="#eff6ff" stroke="#bfdbfe"/><text x="738" y="326" font-size="15" font-weight="700">● QA</text><text x="738" y="360" font-size="26" font-weight="700">115</text><text x="738" y="404" font-size="13" fill="#dc2626" font-weight="700">10 errors</text><text x="806" y="404" font-size="13" font-weight="700">8.70% rate</text>
    <rect x="948" y="300" width="210" height="105" rx="10" fill="#ecfeff" stroke="#a5f3fc"/><text x="964" y="326" font-size="15" font-weight="700">● Demo</text><text x="964" y="360" font-size="26" font-weight="700">2</text><text x="964" y="404" font-size="13" fill="#dc2626" font-weight="700">0 errors</text><text x="1030" y="404" font-size="13" font-weight="700">0.00% rate</text>
  </g>
</svg>
