<svg xmlns="http://www.w3.org/2000/svg" width="520" height="330" viewBox="0 0 520 330">
  <rect width="520" height="330" fill="#fff"/>
  <rect x="20" y="18" width="220" height="92" rx="12" fill="#fff" stroke="#e5e7eb"/>
  <text x="52" y="48" font-family="Arial" font-size="17" font-weight="700">choiceproperties</text>
  <text x="52" y="70" font-family="Arial" font-size="14" fill="#64748b">4 apps</text>
  <text x="36" y="100" font-family="Arial" font-size="26" font-weight="700">938</text><text x="160" y="100" font-family="Arial" font-size="20" font-weight="700" fill="#ef4444">9.81%</text>
  <rect x="20" y="126" width="300" height="182" rx="12" fill="#fff" stroke="#e5e7eb"/>
  <text x="44" y="158" font-family="Arial" font-size="13" font-weight="700" fill="#64748b">TOP CONTRIBUTING APPS</text>
  <line x1="44" y1="174" x2="296" y2="174" stroke="#f1f5f9"/>
  <g font-family="Arial">
    <text x="44" y="202" font-size="15" font-weight="700">● Reconciliation</text><text x="60" y="222" font-size="13" fill="#94a3b8">Production</text><rect x="236" y="188" width="60" height="24" rx="7" fill="#fef2f2" stroke="#fecaca"/><text x="248" y="205" font-size="14" font-weight="700" fill="#ef4444">9.98%</text>
    <text x="44" y="244" font-size="15" font-weight="700">● Financial Reporting</text><text x="60" y="264" font-size="13" fill="#94a3b8">Production</text><rect x="236" y="230" width="60" height="24" rx="7" fill="#fef2f2" stroke="#fecaca"/><text x="248" y="247" font-size="14" font-weight="700" fill="#ef4444">0.00%</text>
    <text x="44" y="286" font-size="15" font-weight="700">● Journal Voucher</text><text x="60" y="306" font-size="13" fill="#94a3b8">Production</text><rect x="236" y="272" width="60" height="24" rx="7" fill="#fef2f2" stroke="#fecaca"/><text x="248" y="289" font-size="14" font-weight="700" fill="#ef4444">0.00%</text>
  </g>
</svg>
