<svg xmlns="http://www.w3.org/2000/svg" width="1200" height="440" viewBox="0 0 1200 440">
  <rect width="1200" height="440" fill="#fff"/>
  <text x="24" y="28" font-family="Arial" font-size="20" font-weight="700">Tenants</text><text x="92" y="28" font-family="Arial" font-size="14" fill="#94a3b8">22 total · hover a tenant to see its top contributing apps</text>
  <g font-family="Arial">
    <rect x="24" y="48" width="185" height="84" rx="12" fill="#fff" stroke="#e5e7eb"/><text x="46" y="78" font-size="15" font-weight="700">● rehlko</text><text x="46" y="96" font-size="13" fill="#64748b">2 apps</text><text x="46" y="124" font-size="24" font-weight="700">2,000</text><text x="150" y="124" font-size="17" font-weight="700" fill="#ef4444">6.20%</text><text x="46" y="140" font-size="11" fill="#94a3b8">REQUESTS</text>
    <rect x="224" y="48" width="185" height="84" rx="12" fill="#fff" stroke="#e5e7eb"/><text x="246" y="78" font-size="15" font-weight="700">● choiceproperties</text><text x="246" y="96" font-size="13" fill="#64748b">4 apps</text><text x="246" y="124" font-size="24" font-weight="700">938</text><text x="350" y="124" font-size="17" font-weight="700" fill="#ef4444">9.81%</text>
    <rect x="424" y="48" width="185" height="84" rx="12" fill="#fff" stroke="#e5e7eb"/><text x="446" y="78" font-size="15" font-weight="700">● mundipharma</text><text x="446" y="96" font-size="13" fill="#64748b">2 apps</text><text x="446" y="124" font-size="24" font-weight="700">1,000</text><text x="550" y="124" font-size="17" font-weight="700" fill="#ef4444">5.60%</text>
    <rect x="624" y="48" width="185" height="84" rx="12" fill="#fff" stroke="#e5e7eb"/><text x="646" y="78" font-size="15" font-weight="700">● citizenswealth</text><text x="646" y="96" font-size="13" fill="#64748b">1 app</text><text x="646" y="124" font-size="24" font-weight="700">288</text><text x="744" y="124" font-size="17" font-weight="700" fill="#ef4444">13.19%</text>
    <rect x="824" y="48" width="185" height="84" rx="12" fill="#fff" stroke="#e5e7eb"/><text x="846" y="78" font-size="15" font-weight="700">● nexeoplastics</text><text x="846" y="96" font-size="13" fill="#64748b">1 app</text><text x="846" y="124" font-size="24" font-weight="700">1,000</text><text x="950" y="124" font-size="17" font-weight="700" fill="#f59e0b">2.80%</text>
    <rect x="1024" y="48" width="150" height="84" rx="12" fill="#fff" stroke="#e5e7eb"/><text x="1046" y="78" font-size="15" font-weight="700">● howden</text><text x="1046" y="96" font-size="13" fill="#64748b">1 app</text><text x="1046" y="124" font-size="24" font-weight="700">290</text><text x="1122" y="124" font-size="17" font-weight="700" fill="#ef4444">6.90%</text>
    <rect x="24" y="154" width="185" height="84" rx="12" fill="#fff" stroke="#e5e7eb"/><text x="46" y="184" font-size="15" font-weight="700">● trilogyfs</text><text x="46" y="202" font-size="13" fill="#64748b">1 app</text><text x="46" y="230" font-size="24" font-weight="700">93</text><text x="150" y="230" font-size="17" font-weight="700" fill="#f59e0b">4.30%</text>
    <rect x="224" y="154" width="185" height="84" rx="12" fill="#fff" stroke="#e5e7eb"/><text x="246" y="184" font-size="15" font-weight="700">● cwuk-sp</text><text x="246" y="202" font-size="13" fill="#64748b">1 app</text><text x="246" y="230" font-size="24" font-weight="700">1</text><text x="338" y="230" font-size="17" font-weight="700" fill="#ef4444">100.00%</text>
    <rect x="424" y="154" width="185" height="84" rx="12" fill="#fff" stroke="#e5e7eb"/><text x="446" y="184" font-size="15" font-weight="700">● diversify-prod</text><text x="446" y="202" font-size="13" fill="#64748b">2 apps</text><text x="446" y="230" font-size="24" font-weight="700">46</text><text x="550" y="230" font-size="17" font-weight="700" fill="#10b981">0.00%</text>
    <rect x="624" y="154" width="185" height="84" rx="12" fill="#fff" stroke="#e5e7eb"/><text x="646" y="184" font-size="15" font-weight="700" fill="#10b981">● axosclearing</text><text x="646" y="202" font-size="13" fill="#64748b">4 apps</text><text x="646" y="230" font-size="24" font-weight="700">0</text><text x="750" y="230" font-size="17" font-weight="700" fill="#10b981">0.00%</text>
  </g>
</svg>
